<svg width="200" height="200" viewBox="0 0 200 200" xmlns="http://www.w3.org/2000/svg">
      <defs>
        <style>
          @import url('https://fonts.googleapis.com/css2?family=Dancing+Script:wght@700&display=swap');
        </style>
      </defs>
      <rect x="10" y="10" width="180" height="180" rx="40" fill="#0C0702"/>
      <rect x="18" y="18" width="164" height="164" rx="33" fill="none" stroke="#DEA82B" stroke-width="0.75" opacity="0.35"/>
      <g transform="translate(20,20) scale(2.5)" fill="#DEA82B">
        <path d="m19 24a10 10 0 1 1 4.344-19c.11-.188.225-.374.347-.556a1 1 0 1 1 1.662 1.112 8.035 8.035 0 0 0 -.672 1.222 1 1 0 0 1 -1.446.445 7.995 7.995 0 1 0 -2.457 14.571 1 1 0 0 1 .444 1.951 10.07 10.07 0 0 1 -2.222.255z"/>
        <path d="m45 24a10.07 10.07 0 0 1 -2.222-.255 1 1 0 0 1 .444-1.951 8 8 0 1 0 -2.457-14.571 1 1 0 0 1 -1.446-.445 8 8 0 0 0 -7.319-4.778 7.89 7.89 0 0 0 -5.022 1.777 1 1 0 1 1 -1.259-1.554 9.99 9.99 0 0 1 14.937 2.777 10 10 0 1 1 4.344 19z"/>
        <path d="m46 33a1 1 0 0 1 -.894-1.447l1.444-2.887a66.153 66.153 0 0 0 -14.55-1.666 66.153 66.153 0 0 0 -14.549 1.666l1.449 2.887a1 1 0 1 1 -1.79.894l-2-4a1 1 0 0 1 .62-1.409 66 66 0 0 1 32.55 0 1 1 0 0 1 .62 1.409l-2 4a1 1 0 0 1 -.9.553z"/>
        <path d="m42 24h5v1.999h-5z" transform="matrix(.6 -.8 .8 .6 -2.196 45.609)"/>
        <path d="m19.5 22.5h1.999v5h-1.999z" transform="matrix(.8 -.6 .6 .8 -10.9 17.3)"/>
        <path d="m14 15a1 1 0 0 1 -1-1 6.006 6.006 0 0 1 6-6 1 1 0 0 1 0 2 4 4 0 0 0 -4 4 1 1 0 0 1 -1 1z"/>
        <path d="m44.46 62.2a1 1 0 0 1 -.707-.293l-9.9-9.9a1 1 0 0 1 0-1.414l2.828-2.829a1.029 1.029 0 0 1 1.414 0l4.611 4.611a1 1 0 0 1 -1.414 1.414l-3.9-3.9-1.417 1.411 8.485 8.485 1.415-1.415-2.582-2.581a1 1 0 0 1 1.414-1.414l3.293 3.292a1 1 0 0 1 0 1.414l-2.833 2.829a1 1 0 0 1 -.707.29z"/>
        <path d="m32.439 54.425a1 1 0 0 1 -.707-.293l-11.314-11.314a8.012 8.012 0 0 1 0-11.314 1.031 1.031 0 0 1 1.415 0l16.267 16.264a1 1 0 0 1 0 1.414l-4.95 4.95a1 1 0 0 1 -.711.293zm-11.254-20.74a6.011 6.011 0 0 0 .648 7.719l10.606 10.607 3.536-3.536z"/>
        <path d="m20.565 63.264a1 1 0 0 1 -.707-.293l-2.829-2.829a1 1 0 0 1 0-1.414l3.264-3.263a1 1 0 1 1 1.414 1.414l-2.557 2.556 1.415 1.415 5.657-5.658-1.414-1.414-.93.929a1 1 0 0 1 -1.414-1.414l1.636-1.636a1 1 0 0 1 1.414 0l2.828 2.828a1 1 0 0 1 0 1.414l-7.071 7.072a1 1 0 0 1 -.706.293z"/>
        <path d="m34.445 43.573h1.964v2h-1.964z" transform="matrix(.707 -.707 .707 .707 -21.142 38.106)"/>
        <path d="m25.598 51.273h4.258v2h-4.258z" transform="matrix(.707 -.707 .707 .707 -28.841 34.916)"/>
        <path d="m42.485 47h-4.242a1 1 0 0 1 -.707-.293l-4.243-4.242a1 1 0 0 1 -.293-.707v-4.243a1 1 0 0 1 .293-.707l7.071-7.072a1.029 1.029 0 0 1 1.414 0l8.485 8.486a1 1 0 0 1 0 1.414l-7.071 7.071a1 1 0 0 1 -.707.293zm-3.828-2h3.414l6.071-6.071-7.071-7.072-6.071 6.072v3.415z"/>
        <path d="m40.364 43.465a1 1 0 0 1 -.707-1.707l4.243-4.243a1 1 0 0 1 1.414 1.414l-4.242 4.243a1 1 0 0 1 -.708.293z"/>
        <path d="m37.536 40.636a1 1 0 0 1 -.707-1.707l4.242-4.242a1 1 0 0 1 1.414 1.413l-4.242 4.242a1 1 0 0 1 -.707.294z"/>
      </g>
      <text x="100" y="55" text-anchor="middle" font-family="'Dancing Script', cursive" font-size="15" font-weight="700" fill="#DEA82B" letter-spacing="1">TCJ</text>
    </svg>